<svg xmlns="http://www.w3.org/2000/svg" viewBox="0 0 1280 720">
  
  <defs>
    <linearGradient id="bg-gradient-08" x1="0%" y1="0%" x2="100%" y2="100%">
      <stop offset="0%" style="stop-color:#0F172A;stop-opacity:1" />
      <stop offset="100%" style="stop-color:#1E3A5F;stop-opacity:1" />
    </linearGradient>
  </defs>
  <rect width="1280" height="720" fill="url(#bg-gradient-08)" />

  
  <rect width="1280" height="8" fill="#22D3EE" />

  
  <text x="640" y="70" text-anchor="middle" font-family="微软雅黑, Arial" font-size="42" font-weight="bold" fill="#FFFFFF">
    成为精明的技术管理者
  </text>

  
  <rect x="540" y="95" width="200" height="3" fill="#22D3EE" />

  
  <text x="640" y="135" text-anchor="middle" font-family="微软雅黑, Arial" font-size="22" fill="#94A3B8">
    总结与建议
  </text>

  
  <g transform="translate(640, 210)">
    <path fill="#22D3EE" fill-opacity="0.2" d="M-384,-50 H384 A16,16 0 0 1 400,-34 V34 A16,16 0 0 1 384,50 H-384 A16,16 0 0 1 -400,34 V-34 A16,16 0 0 1 -384,-50 Z" />

    
    <text x="-360" y="-5" font-family="Georgia, serif" font-size="60" fill="#22D3EE" fill-opacity="0.5">"</text>

    
    <text x="0" y="-5" text-anchor="middle" font-family="微软雅黑, Arial" font-size="28" font-weight="bold" fill="#FFFFFF">
      核心结论
    </text>
    <text x="0" y="30" text-anchor="middle" font-family="微软雅黑, Arial" font-size="24" fill="#22D3EE">
      逻辑思维能力 <tspan font-size="28" font-weight="bold">&gt;</tspan> 编码语法能力
    </text>

    <text x="360" y="45" font-family="Georgia, serif" font-size="60" fill="#22D3EE" fill-opacity="0.5">"</text>
  </g>

  
  
  <g transform="translate(140, 310)">
    <path fill="#1E3A5F" fill-opacity="0.8" stroke="#22D3EE" stroke-width="3" d="M16,0 H304 A16,16 0 0 1 320,16 V264 A16,16 0 0 1 304,280 H16 A16,16 0 0 1 0,264 V16 A16,16 0 0 1 16,0 Z" />

    
    <circle cx="270" cy="40" r="28" fill="#E0F2FE" />
    
    <text x="270" y="52" text-anchor="middle" font-family="Arial" font-size="32">🎯</text>

    
    <circle cx="40" cy="40" r="28" fill="#22D3EE" />
    <text x="40" y="50" text-anchor="middle" font-family="Arial" font-size="26" font-weight="bold" fill="#FFFFFF">1</text>

    
    <text x="160" y="50" text-anchor="middle" font-family="微软雅黑, Arial" font-size="22" font-weight="bold" fill="#FFFFFF">
      保持小而美
    </text>

    
    <line x1="30" y1="85" x2="290" y2="85" stroke="#475569" stroke-width="2" />

    
    <text fill="#E2E8F0" font-family="微软雅黑, Arial" font-size="16" x="30" y="120">• 控制系统复杂度</text><text fill="#E2E8F0" font-family="微软雅黑, Arial" font-size="16" x="30" y="152">• 避免大型单体应用</text><text fill="#E2E8F0" font-family="微软雅黑, Arial" font-size="16" x="30" y="184">• 优先实现核心功能</text><text fill="#E2E8F0" font-family="微软雅黑, Arial" font-size="16" x="30" y="216">• 后期可逐步迭代</text></g>

  
  <g transform="translate(480, 310)">
    <path fill="#1E3A5F" fill-opacity="0.8" stroke="#F59E0B" stroke-width="3" d="M16,0 H304 A16,16 0 0 1 320,16 V264 A16,16 0 0 1 304,280 H16 A16,16 0 0 1 0,264 V16 A16,16 0 0 1 16,0 Z" />

    
    <circle cx="270" cy="40" r="28" fill="#FEF3C7" />
    
    <text x="270" y="52" text-anchor="middle" font-family="Arial" font-size="32">👁️</text>

    
    <circle cx="40" cy="40" r="28" fill="#F59E0B" />
    <text x="40" y="50" text-anchor="middle" font-family="Arial" font-size="26" font-weight="bold" fill="#FFFFFF">2</text>

    
    <text x="160" y="50" text-anchor="middle" font-family="微软雅黑, Arial" font-size="22" font-weight="bold" fill="#FFFFFF">
      人工介入
    </text>

    
    <line x1="30" y1="85" x2="290" y2="85" stroke="#475569" stroke-width="2" />

    
    <text fill="#E2E8F0" font-family="微软雅黑, Arial" font-size="16" x="30" y="120">• 支付环节人工 Review</text><text fill="#E2E8F0" font-family="微软雅黑, Arial" font-size="16" x="30" y="152">• 安全代码人工审计</text><text fill="#E2E8F0" font-family="微软雅黑, Arial" font-size="16" x="30" y="184">• 核心架构人工决策</text><text fill="#E2E8F0" font-family="微软雅黑, Arial" font-size="16" x="30" y="216">• AI 是助手不是替代</text></g>

  
  <g transform="translate(820, 310)">
    <path fill="#1E3A5F" fill-opacity="0.8" stroke="#6366F1" stroke-width="3" d="M16,0 H304 A16,16 0 0 1 320,16 V264 A16,16 0 0 1 304,280 H16 A16,16 0 0 1 0,264 V16 A16,16 0 0 1 16,0 Z" />

    
    <circle cx="270" cy="40" r="28" fill="#EDE9FE" />
    
    <text x="270" y="52" text-anchor="middle" font-family="Arial" font-size="32">🧘</text>

    
    <circle cx="40" cy="40" r="28" fill="#6366F1" />
    <text x="40" y="50" text-anchor="middle" font-family="Arial" font-size="26" font-weight="bold" fill="#FFFFFF">3</text>

    
    <text x="160" y="50" text-anchor="middle" font-family="微软雅黑, Arial" font-size="22" font-weight="bold" fill="#FFFFFF">
      心态管理
    </text>

    
    <line x1="30" y1="85" x2="290" y2="85" stroke="#475569" stroke-width="2" />

    
    <text fill="#E2E8F0" font-family="微软雅黑, Arial" font-size="16" x="30" y="120">• 把 AI 当初级搭档</text><text fill="#E2E8F0" font-family="微软雅黑, Arial" font-size="16" x="30" y="152">• 保持耐心和细致</text><text fill="#E2E8F0" font-family="微软雅黑, Arial" font-size="16" x="30" y="184">• 接受反复迭代调试</text><text fill="#E2E8F0" font-family="微软雅黑, Arial" font-size="16" x="30" y="216">• 持续学习新技巧</text></g>

  
  <g transform="translate(640, 660)">
    <path fill="#22D3EE" fill-opacity="0.3" stroke="#22D3EE" stroke-width="2" d="M-270,-30 H270 A30,30 0 0 1 300,0 V0 A30,30 0 0 1 270,30 H-270 A30,30 0 0 1 -300,0 V0 A30,30 0 0 1 -270,-30 Z" />
    <text x="0" y="5" text-anchor="middle" font-family="微软雅黑, Arial" font-size="18" fill="#FFFFFF">
       让 AI 成为你的开发利器
    </text>
  </g>
</svg>