<svg xmlns="http://www.w3.org/2000/svg" viewBox="0 0 1280 720">
  
  <defs>
    <linearGradient id="bg-gradient-06" x1="0%" y1="0%" x2="100%" y2="100%">
      <stop offset="0%" style="stop-color:#DBEAFE;stop-opacity:1" />
      <stop offset="100%" style="stop-color:#E0E7FF;stop-opacity:1" />
    </linearGradient>
  </defs>
  <rect width="1280" height="720" fill="url(#bg-gradient-06)" />

  
  <rect width="1280" height="8" fill="#1E3A5F" />

  
  <text x="640" y="70" text-anchor="middle" font-family="微软雅黑, Arial" font-size="42" font-weight="bold" fill="#1E3A5F">
    掌控 AI 的"分而治之"策略
  </text>

  
  <rect x="540" y="95" width="200" height="3" fill="#22D3EE" />

  
  <text x="640" y="135" text-anchor="middle" font-family="微软雅黑, Arial" font-size="22" fill="#64748B">
    关键实践 II：迭代策略与上下文
  </text>

  
  <g transform="translate(640, 180)">
    <path fill="#FEF2F2" stroke="#DC2626" stroke-width="2" d="M-492,0 H492 A8,8 0 0 1 500,8 V42 A8,8 0 0 1 492,50 H-492 A8,8 0 0 1 -500,42 V8 A8,8 0 0 1 -492,0 Z" />
    <text x="0" y="32" text-anchor="middle" font-family="微软雅黑, Arial" font-size="18" font-weight="bold" fill="#DC2626">
      ⚠️ 禁止一次性生成整个项目！采用模块化构建 + 分而治之
    </text>
  </g>

  
  <g transform="translate(100, 260)">
    
    <g transform="translate(0, 0)">
      <path fill="#FFFFFF" stroke="#22D3EE" stroke-width="3" d="M12,0 H228 A12,12 0 0 1 240,12 V168 A12,12 0 0 1 228,180 H12 A12,12 0 0 1 0,168 V12 A12,12 0 0 1 12,0 Z" />
      
      <path fill="#22D3EE" d="M6,0 H44 A6,6 0 0 1 50,6 V24 A6,6 0 0 1 44,30 H6 A6,6 0 0 1 0,24 V6 A6,6 0 0 1 6,0 Z" />
      <text x="25" y="20" text-anchor="middle" font-family="Arial" font-size="14" font-weight="bold" fill="#FFFFFF">1</text>
      
      <text x="120" y="60" text-anchor="middle" font-family="微软雅黑, Arial" font-size="20" font-weight="bold" fill="#1E3A5F">
        数据库结构
      </text>
      <text x="120" y="85" text-anchor="middle" font-family="微软雅黑, Arial" font-size="20" font-weight="bold" fill="#1E3A5F">
        先行
      </text>
      
      <circle cx="120" cy="125" r="25" fill="#E0F2FE" />
      <text x="120" y="132" text-anchor="middle" font-family="Arial" font-size="22">🗄️</text>
    </g>

    
    <g transform="translate(255, 90)">
      <text x="0" y="0" text-anchor="middle" font-family="Arial" font-size="28" fill="#22D3EE">→</text>
    </g>

    
    <g transform="translate(290, 0)">
      <path fill="#FFFFFF" stroke="#6366F1" stroke-width="3" d="M12,0 H228 A12,12 0 0 1 240,12 V168 A12,12 0 0 1 228,180 H12 A12,12 0 0 1 0,168 V12 A12,12 0 0 1 12,0 Z" />
      <path fill="#6366F1" d="M6,0 H44 A6,6 0 0 1 50,6 V24 A6,6 0 0 1 44,30 H6 A6,6 0 0 1 0,24 V6 A6,6 0 0 1 6,0 Z" />
      <text x="25" y="20" text-anchor="middle" font-family="Arial" font-size="14" font-weight="bold" fill="#FFFFFF">2</text>
      <text x="120" y="60" text-anchor="middle" font-family="微软雅黑, Arial" font-size="20" font-weight="bold" fill="#1E3A5F">
        后端接口
      </text>
      <text x="120" y="85" text-anchor="middle" font-family="微软雅黑, Arial" font-size="20" font-weight="bold" fill="#1E3A5F">
        CRUD
      </text>
      <circle cx="120" cy="125" r="25" fill="#EDE9FE" />
      <text x="120" y="132" text-anchor="middle" font-family="Arial" font-size="22">⚙️</text>
    </g>

    
    <g transform="translate(545, 90)">
      <text x="0" y="0" text-anchor="middle" font-family="Arial" font-size="28" fill="#22D3EE">→</text>
    </g>

    
    <g transform="translate(580, 0)">
      <path fill="#FFFFFF" stroke="#22D3EE" stroke-width="3" d="M12,0 H228 A12,12 0 0 1 240,12 V168 A12,12 0 0 1 228,180 H12 A12,12 0 0 1 0,168 V12 A12,12 0 0 1 12,0 Z" />
      <path fill="#22D3EE" d="M6,0 H44 A6,6 0 0 1 50,6 V24 A6,6 0 0 1 44,30 H6 A6,6 0 0 1 0,24 V6 A6,6 0 0 1 6,0 Z" />
      <text x="25" y="20" text-anchor="middle" font-family="Arial" font-size="14" font-weight="bold" fill="#FFFFFF">3</text>
      <text x="120" y="60" text-anchor="middle" font-family="微软雅黑, Arial" font-size="20" font-weight="bold" fill="#1E3A5F">
        前端页面
      </text>
      <text x="120" y="85" text-anchor="middle" font-family="微软雅黑, Arial" font-size="20" font-weight="bold" fill="#1E3A5F">
        对接
      </text>
      <circle cx="120" cy="125" r="25" fill="#E0F2FE" />
      <text x="120" y="132" text-anchor="middle" font-family="Arial" font-size="22">🎨</text>
    </g>

    
    <g transform="translate(835, 90)">
      <text x="0" y="0" text-anchor="middle" font-family="Arial" font-size="28" fill="#22D3EE">→</text>
    </g>

    
    <g transform="translate(870, 0)">
      <path fill="#FFFFFF" stroke="#6366F1" stroke-width="3" d="M12,0 H228 A12,12 0 0 1 240,12 V168 A12,12 0 0 1 228,180 H12 A12,12 0 0 1 0,168 V12 A12,12 0 0 1 12,0 Z" />
      <path fill="#6366F1" d="M6,0 H44 A6,6 0 0 1 50,6 V24 A6,6 0 0 1 44,30 H6 A6,6 0 0 1 0,24 V6 A6,6 0 0 1 6,0 Z" />
      <text x="25" y="20" text-anchor="middle" font-family="Arial" font-size="14" font-weight="bold" fill="#FFFFFF">4</text>
      <text x="120" y="60" text-anchor="middle" font-family="微软雅黑, Arial" font-size="20" font-weight="bold" fill="#1E3A5F">
        功能逐个
      </text>
      <text x="120" y="85" text-anchor="middle" font-family="微软雅黑, Arial" font-size="20" font-weight="bold" fill="#1E3A5F">
        叠加
      </text>
      <circle cx="120" cy="125" r="25" fill="#EDE9FE" />
      <text x="120" y="132" text-anchor="middle" font-family="Arial" font-size="22">➕</text>
    </g>
  </g>

  
  <g transform="translate(100, 480)">
    <path fill="#FEF3C7" stroke="#F59E0B" stroke-width="2" d="M12,0 H1068 A12,12 0 0 1 1080,12 V108 A12,12 0 0 1 1068,120 H12 A12,12 0 0 1 0,108 V12 A12,12 0 0 1 12,0 Z" />

    
    <path fill="#F59E0B" d="M6,0 H134 A6,6 0 0 1 140,6 V30 A6,6 0 0 1 134,36 H6 A6,6 0 0 1 0,30 V6 A6,6 0 0 1 6,0 Z" />
    <text x="70" y="24" text-anchor="middle" font-family="微软雅黑, Arial" font-size="16" font-weight="bold" fill="#FFFFFF">
      上下文投喂
    </text>

    
    <g transform="translate(30, 55)">
      <text fill="#92400E" font-family="微软雅黑, Arial" font-size="16" x="0" y="0">每次修改时，务必提供相关文件的完整代码</text><text fill="#92400E" font-family="微软雅黑, Arial" font-size="16" x="0" y="30">• 不要指望 AI 记住之前的对话内容</text><text fill="#92400E" font-family="微软雅黑, Arial" font-size="16" x="400" y="30">• 使用 @ 文件引用 或直接粘贴代码</text><text fill="#92400E" font-family="微软雅黑, Arial" font-size="16" x="0" y="60">• 上下文越完整，AI 生成的代码越准确</text></g>
  </g>

  
  <g transform="translate(640, 640)">
    <path fill="#1E3A5F" d="M-342,-25 H342 A8,8 0 0 1 350,-17 V17 A8,8 0 0 1 342,25 H-342 A8,8 0 0 1 -350,17 V-17 A8,8 0 0 1 -342,-25 Z" />
    <text x="0" y="5" text-anchor="middle" font-family="微软雅黑, Arial" font-size="16" fill="#FFFFFF">
      核心策略：<tspan fill="#22D3EE" font-weight="bold">模块化 + 增量式 + 充分投喂上下文</tspan>
    </text>
  </g>
</svg>