<?xml version="1.0" encoding="UTF-8"?>
<svg xmlns="http://www.w3.org/2000/svg" viewBox="0 0 1280 720">
  
  <defs>
    <linearGradient id="bg-gradient-07" x1="0%" y1="0%" x2="100%" y2="100%">
      <stop offset="0%" style="stop-color:#EDE9FE;stop-opacity:1" />
      <stop offset="50%" style="stop-color:#E0F2FE;stop-opacity:1" />
      <stop offset="100%" style="stop-color:#DBEAFE;stop-opacity:1" />
    </linearGradient>
  </defs>
  <rect width="1280" height="720" fill="url(#bg-gradient-07)" />

  
  <rect width="1280" height="8" fill="#1E3A5F" />

  
  <text x="640" y="70" text-anchor="middle" font-family="微软雅黑, Arial" font-size="42" font-weight="bold" fill="#1E3A5F">
    从想法到上线的 SOP
  </text>

  
  <rect x="540" y="95" width="200" height="3" fill="#22D3EE" />

  
  <text x="640" y="135" text-anchor="middle" font-family="微软雅黑, Arial" font-size="22" fill="#64748B">
    操作手册：标准工作流
  </text>

  
  <defs>
    <marker id="arrowhead" markerWidth="10" markerHeight="10" refX="8" refY="3" orient="auto">
      <polygon points="0 0, 10 3, 0 6" fill="#22D3EE" />
    </marker>
    <marker id="arrowhead-orange" markerWidth="10" markerHeight="10" refX="8" refY="3" orient="auto">
      <polygon points="0 0, 10 3, 0 6" fill="#F59E0B" />
    </marker>
  </defs>

  
  <g transform="translate(97, 190)">
    
    <g transform="translate(0, 0)">
      <path fill="#FFFFFF" stroke="#22D3EE" stroke-width="3" d="M12,0 H208 A12,12 0 0 1 220,12 V83 A12,12 0 0 1 208,95 H12 A12,12 0 0 1 0,83 V12 A12,12 0 0 1 12,0 Z" />
      <path fill="#22D3EE" d="M12,0 H33 A12,12 0 0 1 45,12 V83 A12,12 0 0 1 33,95 H12 A12,12 0 0 1 0,83 V12 A12,12 0 0 1 12,0 Z" />
      <text x="22.5" y="55" text-anchor="middle" font-family="Arial" font-size="22" font-weight="bold" fill="#FFFFFF">1</text>
      <text x="132.5" y="42" text-anchor="middle" font-family="微软雅黑, Arial" font-size="17" font-weight="bold" fill="#1E3A5F">
        需求结构化
      </text>
      <text x="132.5" y="65" text-anchor="middle" font-family="微软雅黑, Arial" font-size="12" fill="#64748B">
        生成 PRD 和 ER 图
      </text>
    </g>

    
    <g transform="translate(230, 47)">
      <text x="15" y="8" text-anchor="middle" font-family="Arial" font-size="30" fill="#22D3EE">→</text>
    </g>

    
    <g transform="translate(275, 0)">
      <path fill="#FFFFFF" stroke="#6366F1" stroke-width="3" d="M12,0 H208 A12,12 0 0 1 220,12 V83 A12,12 0 0 1 208,95 H12 A12,12 0 0 1 0,83 V12 A12,12 0 0 1 12,0 Z" />
      <path fill="#6366F1" d="M12,0 H33 A12,12 0 0 1 45,12 V83 A12,12 0 0 1 33,95 H12 A12,12 0 0 1 0,83 V12 A12,12 0 0 1 12,0 Z" />
      <text x="22.5" y="55" text-anchor="middle" font-family="Arial" font-size="22" font-weight="bold" fill="#FFFFFF">2</text>
      <text x="132.5" y="42" text-anchor="middle" font-family="微软雅黑, Arial" font-size="17" font-weight="bold" fill="#1E3A5F">
        环境基座
      </text>
      <text x="132.5" y="65" text-anchor="middle" font-family="微软雅黑, Arial" font-size="12" fill="#64748B">
        初始化配置与依赖
      </text>
    </g>

    
    <g transform="translate(505, 47)">
      <text x="15" y="8" text-anchor="middle" font-family="Arial" font-size="30" fill="#22D3EE">→</text>
    </g>

    
    <g transform="translate(550, 0)">
      <path fill="#FEF3C7" stroke="#F59E0B" stroke-width="4" d="M12,0 H248 A12,12 0 0 1 260,12 V83 A12,12 0 0 1 248,95 H12 A12,12 0 0 1 0,83 V12 A12,12 0 0 1 12,0 Z" />
      <path fill="#F59E0B" d="M12,0 H33 A12,12 0 0 1 45,12 V83 A12,12 0 0 1 33,95 H12 A12,12 0 0 1 0,83 V12 A12,12 0 0 1 12,0 Z" />
      <text x="22.5" y="55" text-anchor="middle" font-family="Arial" font-size="22" font-weight="bold" fill="#FFFFFF">3</text>
      <text x="152.5" y="42" text-anchor="middle" font-family="微软雅黑, Arial" font-size="17" font-weight="bold" fill="#B45309">
        增量开发循环
      </text>
      <text x="152.5" y="65" text-anchor="middle" font-family="微软雅黑, Arial" font-size="12" fill="#92400E">
        （内部迭代，见下方详解）
      </text>
    </g>

    
    <g transform="translate(820, 47)">
      <text x="15" y="8" text-anchor="middle" font-family="Arial" font-size="30" fill="#22D3EE">→</text>
    </g>

    
    <g transform="translate(865, 0)">
      <path fill="#FFFFFF" stroke="#22D3EE" stroke-width="3" d="M12,0 H208 A12,12 0 0 1 220,12 V83 A12,12 0 0 1 208,95 H12 A12,12 0 0 1 0,83 V12 A12,12 0 0 1 12,0 Z" />
      <path fill="#22D3EE" d="M12,0 H33 A12,12 0 0 1 45,12 V83 A12,12 0 0 1 33,95 H12 A12,12 0 0 1 0,83 V12 A12,12 0 0 1 12,0 Z" />
      <text x="22.5" y="55" text-anchor="middle" font-family="Arial" font-size="22" font-weight="bold" fill="#FFFFFF">4</text>
      <text x="132.5" y="42" text-anchor="middle" font-family="微软雅黑, Arial" font-size="17" font-weight="bold" fill="#1E3A5F">
        部署交付
      </text>
      <text x="132.5" y="65" text-anchor="middle" font-family="微软雅黑, Arial" font-size="12" fill="#64748B">
        Docker或脚本部署与启动
      </text>
    </g>
  </g>

  
  <g transform="translate(640, 490)">
    
    <g transform="translate(0, -100)">
      <path fill="#FFFFFF" stroke="#F59E0B" stroke-width="2" d="M-92,-30 H92 A8,8 0 0 1 100,-22 V12 A8,8 0 0 1 92,20 H-92 A8,8 0 0 1 -100,12 V-22 A8,8 0 0 1 -92,-30 Z" />
      <text x="0" y="0" text-anchor="middle" font-family="微软雅黑, Arial" font-size="15" font-weight="bold" fill="#B45309">
        给出开发指令
      </text>
    </g>

    
    <g transform="translate(180, 0)">
      <path fill="#FFFFFF" stroke="#F59E0B" stroke-width="2" d="M-72,-25 H72 A8,8 0 0 1 80,-17 V17 A8,8 0 0 1 72,25 H-72 A8,8 0 0 1 -80,17 V-17 A8,8 0 0 1 -72,-25 Z" />
      <text x="0" y="5" text-anchor="middle" font-family="微软雅黑, Arial" font-size="15" font-weight="bold" fill="#B45309">
        AI 生成代码
      </text>
    </g>

    
    <g transform="translate(0, 100)">
      <path fill="#FFFFFF" stroke="#F59E0B" stroke-width="2" d="M-92,-30 H92 A8,8 0 0 1 100,-22 V12 A8,8 0 0 1 92,20 H-92 A8,8 0 0 1 -100,12 V-22 A8,8 0 0 1 -92,-30 Z" />
      <text x="0" y="0" text-anchor="middle" font-family="微软雅黑, Arial" font-size="15" font-weight="bold" fill="#B45309">
        测试 → 报错修复
      </text>
    </g>

    
    <g transform="translate(-180, 0)">
      <path fill="#DCFCE7" stroke="#16A34A" stroke-width="2" d="M-72,-25 H72 A8,8 0 0 1 80,-17 V17 A8,8 0 0 1 72,25 H-72 A8,8 0 0 1 -80,17 V-17 A8,8 0 0 1 -72,-25 Z" />
      <text x="0" y="5" text-anchor="middle" font-family="微软雅黑, Arial" font-size="15" font-weight="bold" fill="#166534">
        Git 提交锁定
      </text>
    </g>

    
    <circle cx="0" cy="0" r="50" fill="#F59E0B" />
    <text x="0" y="-5" text-anchor="middle" font-family="微软雅黑, Arial" font-size="12" font-weight="bold" fill="#FFFFFF">
      重复
    </text>
    <text x="0" y="12" text-anchor="middle" font-family="微软雅黑, Arial" font-size="12" font-weight="bold" fill="#FFFFFF">
      循环
    </text>

    
    
    <path d="M 80 -60 Q 150 -60 160 -35" fill="none" stroke="#F59E0B" stroke-width="2.5" marker-end="url(#arrowhead-orange)" />
    
    <path d="M 170 35 Q 170 60 100 60" fill="none" stroke="#F59E0B" stroke-width="2.5" marker-end="url(#arrowhead-orange)" />
    
    <path d="M -100 60 Q -150 60 -160 35" fill="none" stroke="#F59E0B" stroke-width="2.5" marker-end="url(#arrowhead-orange)" />
    
    <path d="M -170 -35 Q -170 -60 -80 -60" fill="none" stroke="#16A34A" stroke-width="2.5" marker-end="url(#arrowhead-orange)" />

    
    <text x="0" y="-145" text-anchor="middle" font-family="微软雅黑, Arial" font-size="20" font-weight="bold" fill="#B45309">
      Step 3：增量开发内部循环
    </text>
  </g>

  
  <g transform="translate(640, 660)">
    <path fill="#1E3A5F" d="M-490,-35 H490 A10,10 0 0 1 500,-25 V25 A10,10 0 0 1 490,35 H-490 A10,10 0 0 1 -500,25 V-25 A10,10 0 0 1 -490,-35 Z" />
    <text x="0" y="-8" text-anchor="middle" font-family="微软雅黑, Arial" font-size="15" font-weight="bold" fill="#22D3EE">
      💡 核心要点
    </text>
    <text x="0" y="18" text-anchor="middle" font-family="微软雅黑, Arial" font-size="14" fill="#FFFFFF">
      1→2→3→4 是线性流程 | Step 3 内部是循环迭代 | 每次功能稳定后立即 Git 提交
    </text>
  </g>
</svg>