<svg xmlns="http://www.w3.org/2000/svg" viewBox="0 0 1280 720">
  
  <defs>
    <linearGradient id="bg-gradient-03" x1="0%" y1="0%" x2="100%" y2="100%">
      <stop offset="0%" style="stop-color:#F0FDFA;stop-opacity:1" />
      <stop offset="50%" style="stop-color:#FEF9C3;stop-opacity:1" />
      <stop offset="100%" style="stop-color:#DBEAFE;stop-opacity:1" />
    </linearGradient>
  </defs>
  <rect width="1280" height="720" fill="url(#bg-gradient-03)" />

  
  <rect width="1280" height="8" fill="#1E3A5F" />

  
  <text x="640" y="70" text-anchor="middle" font-family="微软雅黑, Arial" font-size="42" font-weight="bold" fill="#1E3A5F">
    效率的指数级提升
  </text>

  
  <rect x="540" y="95" width="200" height="3" fill="#22D3EE" />

  
  <text x="640" y="135" text-anchor="middle" font-family="微软雅黑, Arial" font-size="22" fill="#64748B">
    为何选择 AI 编程？
  </text>

  
  
  
  <g transform="translate(80, 180)">
    <path fill="#FFFFFF" stroke="#E2E8F0" stroke-width="2" d="M12,0 H508 A12,12 0 0 1 520,12 V188 A12,12 0 0 1 508,200 H12 A12,12 0 0 1 0,188 V12 A12,12 0 0 1 12,0 Z" />
    
    <circle cx="60" cy="60" r="40" fill="#FEF3C7" />
    <text x="60" y="72" text-anchor="middle" font-family="Arial" font-size="36">🚀</text>
    
    <text x="120" y="50" font-family="微软雅黑, Arial" font-size="24" font-weight="bold" fill="#1E3A5F">
      极速 MVP
    </text>
    
    <text fill="#64748B" font-family="微软雅黑, Arial" font-size="16" x="120" y="85">开发周期从"周"缩短至"小时"</text><text fill="#64748B" font-family="微软雅黑, Arial" font-size="16" x="120" y="110">效率提升 30% - 50%</text><path fill="#FEF3C7" d="M38,140 H482 A8,8 0 0 1 490,148 V172 A8,8 0 0 1 482,180 H38 A8,8 0 0 1 30,172 V148 A8,8 0 0 1 38,140 Z" />
    <text x="260" y="166" text-anchor="middle" font-family="微软雅黑, Arial" font-size="14" font-weight="bold" fill="#92400E">
      当天想法，当天演示
    </text>
  </g>

  
  <g transform="translate(680, 180)">
    <path fill="#FFFFFF" stroke="#22D3EE" stroke-width="2" d="M12,0 H508 A12,12 0 0 1 520,12 V188 A12,12 0 0 1 508,200 H12 A12,12 0 0 1 0,188 V12 A12,12 0 0 1 12,0 Z" />
    
    <circle cx="60" cy="60" r="40" fill="#E0F2FE" />
    <text x="60" y="72" text-anchor="middle" font-family="Arial" font-size="36">🧩</text>
    
    <text x="120" y="50" font-family="微软雅黑, Arial" font-size="24" font-weight="bold" fill="#1E3A5F">
      全栈平民化
    </text>
    
    <text fill="#64748B" font-family="微软雅黑, Arial" font-size="16" x="120" y="85">只要有逻辑，无需懂编程语法</text><text fill="#64748B" font-family="微软雅黑, Arial" font-size="16" x="120" y="110">Java / Vue / SQL 不再是门槛</text><path fill="#E0F2FE" d="M38,140 H482 A8,8 0 0 1 490,148 V172 A8,8 0 0 1 482,180 H38 A8,8 0 0 1 30,172 V148 A8,8 0 0 1 38,140 Z" />
    <text x="260" y="166" text-anchor="middle" font-family="微软雅黑, Arial" font-size="14" font-weight="bold" fill="#0369A1">
      逻辑思维 &gt; 编码语法
    </text>
  </g>

  
  
  <g transform="translate(80, 410)">
    <path fill="#FFFFFF" stroke="#E2E8F0" stroke-width="2" d="M12,0 H508 A12,12 0 0 1 520,12 V188 A12,12 0 0 1 508,200 H12 A12,12 0 0 1 0,188 V12 A12,12 0 0 1 12,0 Z" />
    
    <circle cx="60" cy="60" r="40" fill="#DCFCE7" />
    <text x="60" y="72" text-anchor="middle" font-family="Arial" font-size="36">🔧</text>
    
    <text x="120" y="50" font-family="微软雅黑, Arial" font-size="24" font-weight="bold" fill="#1E3A5F">
      即时排错
    </text>
    
    <text fill="#64748B" font-family="微软雅黑, Arial" font-size="16" x="120" y="85">复制错误日志 → AI 给出修复方案</text><text fill="#64748B" font-family="微软雅黑, Arial" font-size="16" x="120" y="110">秒级定位问题，无需逐行调试</text><path fill="#DCFCE7" d="M38,140 H482 A8,8 0 0 1 490,148 V172 A8,8 0 0 1 482,180 H38 A8,8 0 0 1 30,172 V148 A8,8 0 0 1 38,140 Z" />
    <text x="260" y="166" text-anchor="middle" font-family="微软雅黑, Arial" font-size="14" font-weight="bold" fill="#166534">
      告别 StackOverflow 等待
    </text>
  </g>

  
  <g transform="translate(680, 410)">
    <path fill="#FFFFFF" stroke="#6366F1" stroke-width="2" d="M12,0 H508 A12,12 0 0 1 520,12 V188 A12,12 0 0 1 508,200 H12 A12,12 0 0 1 0,188 V12 A12,12 0 0 1 12,0 Z" />
    
    <circle cx="60" cy="60" r="40" fill="#EDE9FE" />
    <text x="60" y="72" text-anchor="middle" font-family="Arial" font-size="36">📚</text>
    
    <text x="120" y="50" font-family="微软雅黑, Arial" font-size="24" font-weight="bold" fill="#1E3A5F">
      文档同步
    </text>
    
    <text fill="#64748B" font-family="微软雅黑, Arial" font-size="16" x="120" y="85">代码生成的同时，API 文档与</text><text fill="#64748B" font-family="微软雅黑, Arial" font-size="16" x="120" y="110">部署说明一并完成</text><path fill="#EDE9FE" d="M38,140 H482 A8,8 0 0 1 490,148 V172 A8,8 0 0 1 482,180 H38 A8,8 0 0 1 30,172 V148 A8,8 0 0 1 38,140 Z" />
    <text x="260" y="166" text-anchor="middle" font-family="微软雅黑, Arial" font-size="14" font-weight="bold" fill="#5B21B6">
      代码即文档
    </text>
  </g>

  
  <g transform="translate(640, 650)">
    <path fill="#1E3A5F" d="M-182,-20 H182 A18,18 0 0 1 200,-2 V-2 A18,18 0 0 1 182,16 H-182 A18,18 0 0 1 -200,-2 V-2 A18,18 0 0 1 -182,-20 Z" />
    <text x="0" y="5" text-anchor="middle" font-family="微软雅黑, Arial" font-size="16" fill="#FFFFFF">
      核心价值：<tspan fill="#22D3EE" font-weight="bold">降本 • 增效 • 普惠</tspan>
    </text>
  </g>
</svg>